#!OML:ASF I:\Actors\actors\Patient Classification 1\Patient 1\Session 1\Subject1.ASF
:FULLY-SPECIFIED
:DEGREES
733
root 0.783689 17.4402 9.61247 9.0422 2.69643 -8.1665
lowerback -5.16883 0.77518 5.23117
upperback -9.96419 1.18552 2.60556
thorax -7.53618 0.329119 -0.192566
lowerneck -9.13493 -6.07753 -5.677
upperneck 28.5359 -10.3561 9.19689
head 11.5848 -4.28237 3.02382
rclavicle 2.31087e-015 -2.78795e-014
rhumerus -51.6736 -2.04866 -85.5834
rradius 83.034
rwrist 41.333
rhand 21.6331 -30.0291
rfingers 7.12502
rthumb 46.0533 -53.1014
lclavicle 2.31087e-015 -2.78795e-014
lhumerus 12.4745 -34.3298 83.4312
lradius 145.422
lwrist 24.0661
lhand -23.9377 -5.33115
lfingers 7.12502
lthumb 2.53751 24.6335
rfemur -1.66212 24.2937 25.425
rtibia 2.7595
rfoot -15.126 -28.4499
rtoes 6.33169
lfemur 7.5429 -48.4218 -15.2011
ltibia -5.13609
lfoot -22.4912 53.3557
ltoes 9.84832
734
root 0.785665 17.4404 9.61246 9.03617 2.6784 -8.1564
lowerback -5.12766 0.794995 5.25171
upperback -9.95738 1.21531 2.61328
thorax -7.55125 0.342543 -0.196688
lowerneck -9.15981 -6.1093 -5.73894
upperneck 28.5636 -10.4185 9.28271
head 11.6161 -4.30563 3.05746
rclavicle 1.06598e-014 -2.09221e-014
rhumerus -51.7036 -2.03882 -85.6249
rradius 82.9518
rwrist 41.2255
rhand 21.7808 -29.9846
rfingers 7.12502
rthumb 46.1903 -52.9995
lclavicle 1.06598e-014 -2.09221e-014
lhumerus 12.4775 -34.3312 83.409
lradius 145.421
lwrist 24.0979
lhand -23.8793 -5.21886
lfingers 7.12502
lthumb 2.59391 24.7451
rfemur -1.66608 24.2414 25.4009
rtibia 2.76496
rfoot -15.0761 -28.4164
rtoes 6.0846
lfemur 7.56695 -48.3989 -15.2272
ltibia -5.16759
lfoot -22.4032 53.3627
ltoes 9.77274
735
root 0.789107 17.4404 9.6118 9.05775 2.66943 -8.14194
lowerback -5.10668 0.814867 5.2925
upperback -9.95916 1.24403 2.62
thorax -7.56417 0.353865 -0.212799
lowerneck -9.24455 -6.11867 -5.74171
upperneck 28.6197 -10.425 9.24968
head 11.6542 -4.30807 3.04315
rclavicle -5.2181e-016 -6.26172e-015
rhumerus -51.7328 -2.02019 -85.6561
rradius 82.8623
rwrist 41.1518
rhand 22.7131 -29.7049
rfingers 7.12502
rthumb 47.0537 -52.3475
lclavicle -5.2181e-016 -6.26172e-015
lhumerus 12.4684 -34.3336 83.4238
lradius 145.427
lwrist 24.1118
lhand -23.7704 -5.16949
lfingers 7.12502
lthumb 2.69912 24.7932
rfemur -1.71101 24.1627 25.3517
rtibia 2.77177
rfoot -14.9874 -28.3709
rtoes 5.8869
lfemur 7.46804 -48.2511 -15.1739
ltibia -5.15538
lfoot -22.1331 53.2527
ltoes 9.51287
736
root 0.793968 17.4404 9.61111 9.09516 2.66789 -8.09802
lowerback -5.11099 0.844756 5.33893
upperback -9.97231 1.28278 2.59008
thorax -7.57365 0.368085 -0.270401
lowerneck -9.27008 -6.12415 -5.76316
upperneck 28.6359 -10.4343 9.2673
head 11.6692 -4.31101 3.05167
rclavicle 3.83903e-015 -3.12092e-014
rhumerus -51.777 -2.03375 -85.6992
rradius 82.7884
rwrist 41.1239
rhand 24.5402 -29.3339
rfingers 7.12502
rthumb 48.7387 -51.1945
lclavicle 3.83903e-015 -3.12092e-014
lhumerus 12.4694 -34.3815 83.4463
lradius 145.439
lwrist 24.1694
lhand -23.6488 -5.20938
lfingers 7.12502
lthumb 2.81657 24.7518
rfemur -1.75849 24.1425 25.2586
rtibia 2.75919
rfoot -14.9754 -28.352
rtoes 5.96968
lfemur 7.41054 -48.3616 -15.2412
ltibia -5.07202
lfoot -22.2141 53.3312
ltoes 9.59478
737
root 0.797693 17.4404 9.6106 9.10457 2.65709 -8.05595
lowerback -5.09655 0.86578 5.36201
upperback -9.98259 1.31087 2.55877
thorax -7.59117 0.378467 -0.316642
lowerneck -9.20784 -6.12006 -5.78385
upperneck 28.5988 -10.4448 9.34408
head 11.6491 -4.31206 3.08377
rclavicle -1.31819e-014 7.00716e-015
rhumerus -51.8496 -2.03231 -85.762
rradius 82.7563
rwrist 41.1043
rhand 25.7715 -29.2531
rfingers 7.12502
rthumb 49.8685 -50.5446
lclavicle -1.31819e-014 7.00716e-015
lhumerus 12.4638 -34.4237 83.4479
lradius 145.471
lwrist 24.2145
lhand -23.541 -5.19507
lfingers 7.12502
lthumb 2.92066 24.7647
rfemur -1.76914 24.1153 25.1832
rtibia 2.75114
rfoot -15.0129 -28.2956
rtoes 6.07088
lfemur 7.42391 -48.4695 -15.3409
ltibia -5.03363
lfoot -22.3686 53.4092
ltoes 9.8119
738
root 0.799578 17.4407 9.61008 9.10459 2.64405 -8.01724
lowerback -5.07354 0.860857 5.33808
upperback -9.98326 1.30617 2.55984
thorax -7.60548 0.377595 -0.30246
lowerneck -9.20514 -6.104 -5.78667
upperneck 28.6145 -10.433 9.37815
head 11.6559 -4.30273 3.09918
rclavicle -9.03228e-015 -6.5102e-015
rhumerus -51.8998 -1.96334 -85.8218
rradius 82.7413
rwrist 41.0773
rhand 26.0423 -29.2511
rfingers 7.12502
rthumb 50.1163 -50.4126
lclavicle -9.03228e-015 -6.5102e-015
lhumerus 12.4609 -34.4247 83.4411
lradius 145.471
lwrist 24.1591
lhand -23.5012 -5.27358
lfingers 7.12502
lthumb 2.95909 24.6856
rfemur -1.76879 24.0836 25.1229
rtibia 2.74474
rfoot -14.993 -28.2401
rtoes 6.10682
lfemur 7.39235 -48.363 -15.3603
ltibia -5.04039
lfoot -22.276 53.3215
ltoes 9.7532
739
root 0.800613 17.4414 9.60944 9.10608 2.64931 -8.02237
lowerback -5.04696 0.854078 5.34331
upperback -9.97683 1.29988 2.5782
thorax -7.61442 0.374771 -0.286292
lowerneck -9.24903 -6.09175 -5.80223
upperneck 28.646 -10.4214 9.40301
head 11.6787 -4.29389 3.11219
rclavicle 6.42323e-015 2.6985e-014
rhumerus -51.9007 -1.87843 -85.8824
rradius 82.7216
rwrist 41.0009
rhand 25.9556 -29.1022
rfingers 7.12502
rthumb 50.037 -50.3055
lclavicle 6.42323e-015 2.6985e-014
lhumerus 12.4964 -34.4047 83.4591
lradius 145.483
lwrist 24.2069
lhand -23.5013 -5.1316
lfingers 7.12502
lthumb 2.95895 24.8276
rfemur -1.7818 24.0547 25.1207
rtibia 2.75513
rfoot -14.9435 -28.2302
rtoes 6.02666
lfemur 7.39082 -48.4227 -15.3701
ltibia -5.01494
lfoot -22.316 53.3739
ltoes 9.74761
740
root 0.802055 17.4428 9.60803 9.0996 2.65066 -8.06055
lowerback -4.99204 0.869933 5.40003
upperback -9.97518 1.32576 2.58469
thorax -7.64305 0.383178 -0.31191
lowerneck -9.29004 -6.07487 -5.78873
upperneck 28.6729 -10.4074 9.42527
head 11.697 -4.28115 3.11969
rclavicle 2.59662e-015 -2.63887e-014
rhumerus -51.9072 -1.85001 -85.9387
rradius 82.7037
rwrist 40.959
rhand 25.8106 -29.0182
rfingers 7.12502
rthumb 49.9043 -50.291
lclavicle 2.59662e-015 -2.63887e-014
lhumerus 12.5243 -34.3951 83.5158
lradius 145.56
lwrist 24.4222
lhand -23.4968 -4.58796
lfingers 7.12502
lthumb 2.96333 25.3712
rfemur -1.80702 23.9884 25.1537
rtibia 2.78872
rfoot -14.8977 -28.1897
rtoes 5.81875
lfemur 7.42355 -48.5435 -15.3694
ltibia -4.99546
lfoot -22.6034 53.4321
ltoes 10.0911
741
root 0.80354 17.4438 9.60661 9.09249 2.6355 -8.06847
lowerback -4.94002 0.886103 5.42274
upperback -9.9776 1.35135 2.57815
thorax -7.67428 0.393222 -0.332388
lowerneck -9.3391 -6.03754 -5.74339
upperneck 28.7412 -10.3854 9.48265
head 11.7331 -4.25594 3.13684
rclavicle -9.21864e-015 6.26172e-015
rhumerus -51.9224 -1.84062 -85.9822
rradius 82.6791
rwrist 40.9774
rhand 24.936 -28.8438
rfingers 7.12502
rthumb 49.1024 -50.5254
lclavicle -9.21864e-015 6.26172e-015
lhumerus 12.5199 -34.3993 83.5622
lradius 145.606
lwrist 24.5781
lhand -23.486 -4.20266
lfingers 7.12502
lthumb 2.97373 25.7563
rfemur -1.81509 23.9708 25.1546
rtibia 2.80538
rfoot -14.8956 -28.1628
rtoes 5.7231
lfemur 7.45112 -48.5628 -15.3844
ltibia -5.00152
lfoot -22.9356 53.3879
ltoes 10.5454
